<svg width="179" height="49" viewBox="0 0 179 49" fill="none" xmlns="http://www.w3.org/2000/svg">
<path d="M14.4737 16.4668C13.4308 16.4668 12.505 16.6719 11.6964 17.082C10.8995 17.4805 10.2257 18.0605 9.67492 18.8223C9.13586 19.584 8.7257 20.5039 8.44445 21.582C8.1632 22.6602 8.02258 23.873 8.02258 25.2207C8.02258 27.0371 8.24523 28.5898 8.69054 29.8789C9.14758 31.1562 9.8507 32.1348 10.7999 32.8145C11.7491 33.4824 12.9737 33.8164 14.4737 33.8164C15.5167 33.8164 16.5597 33.6992 17.6027 33.4648C18.6573 33.2305 19.7999 32.8965 21.0304 32.4629V37.0332C19.8937 37.502 18.7745 37.8359 17.673 38.0352C16.5714 38.2461 15.3351 38.3516 13.964 38.3516C11.3155 38.3516 9.13586 37.8066 7.42492 36.7168C5.7257 35.6152 4.46593 34.0801 3.64562 32.1113C2.82531 30.1309 2.41515 27.8223 2.41515 25.1855C2.41515 23.2402 2.67883 21.459 3.20617 19.8418C3.73351 18.2246 4.50695 16.8242 5.52648 15.6406C6.54601 14.457 7.80578 13.543 9.30578 12.8984C10.8058 12.2539 12.5284 11.9316 14.4737 11.9316C15.7511 11.9316 17.0284 12.0957 18.3058 12.4238C19.5948 12.7402 20.8253 13.1797 21.9972 13.7422L20.2394 18.1719C19.2784 17.7148 18.3116 17.3164 17.339 16.9766C16.3663 16.6367 15.4112 16.4668 14.4737 16.4668ZM43.408 18.3477V38H39.2948L38.5741 35.4863H38.2928C37.8709 36.1543 37.3436 36.6992 36.7108 37.1211C36.078 37.543 35.3807 37.8535 34.619 38.0527C33.8573 38.252 33.0662 38.3516 32.2459 38.3516C30.8397 38.3516 29.6151 38.1055 28.5721 37.6133C27.5291 37.1094 26.7147 36.3301 26.1287 35.2754C25.5545 34.2207 25.2674 32.8496 25.2674 31.1621V18.3477H30.6287V29.8262C30.6287 31.2324 30.8807 32.293 31.3846 33.0078C31.8885 33.7227 32.6912 34.0801 33.7928 34.0801C34.8827 34.0801 35.7381 33.834 36.3592 33.3418C36.9803 32.8379 37.4139 32.1055 37.66 31.1445C37.9178 30.1719 38.0467 28.9883 38.0467 27.5938V18.3477H43.408ZM59.2818 17.9785C59.5513 17.9785 59.8619 17.9961 60.2134 18.0312C60.5767 18.0547 60.8697 18.0898 61.0923 18.1367L60.688 23.1641C60.5123 23.1055 60.2603 23.0645 59.9322 23.041C59.6158 23.0059 59.3404 22.9883 59.106 22.9883C58.4146 22.9883 57.7408 23.0762 57.0845 23.252C56.44 23.4277 55.8599 23.7148 55.3443 24.1133C54.8287 24.5 54.4185 25.0156 54.1138 25.6602C53.8209 26.293 53.6744 27.0723 53.6744 27.998V38H48.313V18.3477H52.3736L53.1646 21.6523H53.4283C53.815 20.9844 54.2955 20.375 54.8697 19.8242C55.4556 19.2617 56.1177 18.8164 56.856 18.4883C57.606 18.1484 58.4146 17.9785 59.2818 17.9785ZM74.9095 17.9785C75.179 17.9785 75.4895 17.9961 75.8411 18.0312C76.2044 18.0547 76.4973 18.0898 76.72 18.1367L76.3157 23.1641C76.1399 23.1055 75.888 23.0645 75.5598 23.041C75.2434 23.0059 74.968 22.9883 74.7337 22.9883C74.0423 22.9883 73.3684 23.0762 72.7122 23.252C72.0677 23.4277 71.4876 23.7148 70.972 24.1133C70.4563 24.5 70.0462 25.0156 69.7415 25.6602C69.4485 26.293 69.302 27.0723 69.302 27.998V38H63.9407V18.3477H68.0012L68.7923 21.6523H69.0559C69.4427 20.9844 69.9231 20.375 70.4973 19.8242C71.0833 19.2617 71.7454 18.8164 72.4837 18.4883C73.2337 18.1484 74.0423 17.9785 74.9095 17.9785ZM87.6719 17.9785C89.4883 17.9785 91.0527 18.3301 92.3652 19.0332C93.6777 19.7246 94.6914 20.7324 95.4062 22.0566C96.1211 23.3809 96.4785 24.998 96.4785 26.9082V29.5098H83.8047C83.8633 31.0215 84.3145 32.2109 85.1582 33.0781C86.0137 33.9336 87.1973 34.3613 88.709 34.3613C89.9629 34.3613 91.1113 34.2324 92.1543 33.9746C93.1973 33.7168 94.2695 33.3301 95.3711 32.8145V36.9629C94.3984 37.4434 93.3789 37.7949 92.3125 38.0176C91.2578 38.2402 89.9746 38.3516 88.4629 38.3516C86.4941 38.3516 84.748 37.9883 83.2246 37.2617C81.7129 36.5352 80.5234 35.4277 79.6562 33.9395C78.8008 32.4512 78.373 30.5762 78.373 28.3145C78.373 26.0176 78.7598 24.1074 79.5332 22.584C80.3184 21.0488 81.4082 19.9004 82.8027 19.1387C84.1973 18.3652 85.8203 17.9785 87.6719 17.9785ZM87.707 21.793C86.6641 21.793 85.7969 22.127 85.1055 22.7949C84.4258 23.4629 84.0332 24.5117 83.9277 25.9414H91.4512C91.4395 25.1445 91.293 24.4355 91.0117 23.8145C90.7422 23.1934 90.332 22.7012 89.7812 22.3379C89.2422 21.9746 88.5508 21.793 87.707 21.793ZM111.28 17.9785C113.378 17.9785 115.065 18.5527 116.342 19.7012C117.62 20.8379 118.259 22.666 118.259 25.1855V38H112.897V26.5215C112.897 25.1152 112.639 24.0547 112.124 23.3398C111.62 22.625 110.823 22.2676 109.733 22.2676C108.092 22.2676 106.973 22.8242 106.376 23.9375C105.778 25.0508 105.479 26.6562 105.479 28.7539V38H100.118V18.3477H104.214L104.934 20.8613H105.233C105.655 20.1816 106.176 19.6309 106.798 19.209C107.43 18.7871 108.128 18.4766 108.889 18.2773C109.663 18.0781 110.46 17.9785 111.28 17.9785ZM133.394 38H127.945V16.8359H120.966V12.3008H140.372V16.8359H133.394V38ZM151.166 38.3516C149.221 38.3516 147.563 38 146.192 37.2969C144.82 36.582 143.777 35.4805 143.063 33.9922C142.348 32.5039 141.99 30.5996 141.99 28.2793C141.99 25.877 142.395 23.9199 143.203 22.4082C144.024 20.8848 145.154 19.7656 146.596 19.0508C148.049 18.3359 149.731 17.9785 151.641 17.9785C153 17.9785 154.172 18.1133 155.156 18.3828C156.152 18.6406 157.02 18.9512 157.758 19.3145L156.176 23.4629C155.332 23.123 154.547 22.8477 153.82 22.6367C153.094 22.4141 152.367 22.3027 151.641 22.3027C150.703 22.3027 149.924 22.5254 149.303 22.9707C148.682 23.4043 148.219 24.0605 147.914 24.9395C147.61 25.8184 147.457 26.9199 147.457 28.2441C147.457 29.5449 147.621 30.623 147.949 31.4785C148.277 32.334 148.752 32.9727 149.373 33.3945C149.994 33.8047 150.75 34.0098 151.641 34.0098C152.754 34.0098 153.744 33.8633 154.611 33.5703C155.479 33.2656 156.322 32.8438 157.143 32.3047V36.8926C156.322 37.4082 155.461 37.7773 154.559 38C153.668 38.2344 152.537 38.3516 151.166 38.3516ZM158.181 18.3477H164.052L167.761 29.4043C167.878 29.7559 167.977 30.1133 168.059 30.4766C168.141 30.8398 168.212 31.2148 168.27 31.6016C168.329 31.9883 168.376 32.3926 168.411 32.8145H168.516C168.587 32.1816 168.681 31.5898 168.798 31.0391C168.927 30.4883 169.085 29.9434 169.272 29.4043L172.911 18.3477H178.659L170.345 40.5137C169.841 41.873 169.184 43.0039 168.376 43.9062C167.567 44.8203 166.636 45.5059 165.581 45.9629C164.538 46.4199 163.39 46.6484 162.136 46.6484C161.526 46.6484 160.999 46.6133 160.554 46.543C160.108 46.4844 159.727 46.4199 159.411 46.3496V42.0957C159.657 42.1543 159.968 42.207 160.343 42.2539C160.718 42.3008 161.11 42.3242 161.52 42.3242C162.27 42.3242 162.915 42.166 163.454 41.8496C163.993 41.5332 164.444 41.1055 164.807 40.5664C165.171 40.0391 165.458 39.459 165.669 38.8262L165.985 37.8594L158.181 18.3477Z" fill="#3AB83A"/>
<path d="M14.4737 16.4668C13.4308 16.4668 12.505 16.6719 11.6964 17.082C10.8995 17.4805 10.2257 18.0605 9.67492 18.8223C9.13586 19.584 8.7257 20.5039 8.44445 21.582C8.1632 22.6602 8.02258 23.873 8.02258 25.2207C8.02258 27.0371 8.24523 28.5898 8.69054 29.8789C9.14758 31.1562 9.8507 32.1348 10.7999 32.8145C11.7491 33.4824 12.9737 33.8164 14.4737 33.8164C15.5167 33.8164 16.5597 33.6992 17.6027 33.4648C18.6573 33.2305 19.7999 32.8965 21.0304 32.4629V37.0332C19.8937 37.502 18.7745 37.8359 17.673 38.0352C16.5714 38.2461 15.3351 38.3516 13.964 38.3516C11.3155 38.3516 9.13586 37.8066 7.42492 36.7168C5.7257 35.6152 4.46593 34.0801 3.64562 32.1113C2.82531 30.1309 2.41515 27.8223 2.41515 25.1855C2.41515 23.2402 2.67883 21.459 3.20617 19.8418C3.73351 18.2246 4.50695 16.8242 5.52648 15.6406C6.54601 14.457 7.80578 13.543 9.30578 12.8984C10.8058 12.2539 12.5284 11.9316 14.4737 11.9316C15.7511 11.9316 17.0284 12.0957 18.3058 12.4238C19.5948 12.7402 20.8253 13.1797 21.9972 13.7422L20.2394 18.1719C19.2784 17.7148 18.3116 17.3164 17.339 16.9766C16.3663 16.6367 15.4112 16.4668 14.4737 16.4668ZM43.408 18.3477V38H39.2948L38.5741 35.4863H38.2928C37.8709 36.1543 37.3436 36.6992 36.7108 37.1211C36.078 37.543 35.3807 37.8535 34.619 38.0527C33.8573 38.252 33.0662 38.3516 32.2459 38.3516C30.8397 38.3516 29.6151 38.1055 28.5721 37.6133C27.5291 37.1094 26.7147 36.3301 26.1287 35.2754C25.5545 34.2207 25.2674 32.8496 25.2674 31.1621V18.3477H30.6287V29.8262C30.6287 31.2324 30.8807 32.293 31.3846 33.0078C31.8885 33.7227 32.6912 34.0801 33.7928 34.0801C34.8827 34.0801 35.7381 33.834 36.3592 33.3418C36.9803 32.8379 37.4139 32.1055 37.66 31.1445C37.9178 30.1719 38.0467 28.9883 38.0467 27.5938V18.3477H43.408ZM59.2818 17.9785C59.5513 17.9785 59.8619 17.9961 60.2134 18.0312C60.5767 18.0547 60.8697 18.0898 61.0923 18.1367L60.688 23.1641C60.5123 23.1055 60.2603 23.0645 59.9322 23.041C59.6158 23.0059 59.3404 22.9883 59.106 22.9883C58.4146 22.9883 57.7408 23.0762 57.0845 23.252C56.44 23.4277 55.8599 23.7148 55.3443 24.1133C54.8287 24.5 54.4185 25.0156 54.1138 25.6602C53.8209 26.293 53.6744 27.0723 53.6744 27.998V38H48.313V18.3477H52.3736L53.1646 21.6523H53.4283C53.815 20.9844 54.2955 20.375 54.8697 19.8242C55.4556 19.2617 56.1177 18.8164 56.856 18.4883C57.606 18.1484 58.4146 17.9785 59.2818 17.9785ZM74.9095 17.9785C75.179 17.9785 75.4895 17.9961 75.8411 18.0312C76.2044 18.0547 76.4973 18.0898 76.72 18.1367L76.3157 23.1641C76.1399 23.1055 75.888 23.0645 75.5598 23.041C75.2434 23.0059 74.968 22.9883 74.7337 22.9883C74.0423 22.9883 73.3684 23.0762 72.7122 23.252C72.0677 23.4277 71.4876 23.7148 70.972 24.1133C70.4563 24.5 70.0462 25.0156 69.7415 25.6602C69.4485 26.293 69.302 27.0723 69.302 27.998V38H63.9407V18.3477H68.0012L68.7923 21.6523H69.0559C69.4427 20.9844 69.9231 20.375 70.4973 19.8242C71.0833 19.2617 71.7454 18.8164 72.4837 18.4883C73.2337 18.1484 74.0423 17.9785 74.9095 17.9785ZM87.6719 17.9785C89.4883 17.9785 91.0527 18.3301 92.3652 19.0332C93.6777 19.7246 94.6914 20.7324 95.4062 22.0566C96.1211 23.3809 96.4785 24.998 96.4785 26.9082V29.5098H83.8047C83.8633 31.0215 84.3145 32.2109 85.1582 33.0781C86.0137 33.9336 87.1973 34.3613 88.709 34.3613C89.9629 34.3613 91.1113 34.2324 92.1543 33.9746C93.1973 33.7168 94.2695 33.3301 95.3711 32.8145V36.9629C94.3984 37.4434 93.3789 37.7949 92.3125 38.0176C91.2578 38.2402 89.9746 38.3516 88.4629 38.3516C86.4941 38.3516 84.748 37.9883 83.2246 37.2617C81.7129 36.5352 80.5234 35.4277 79.6562 33.9395C78.8008 32.4512 78.373 30.5762 78.373 28.3145C78.373 26.0176 78.7598 24.1074 79.5332 22.584C80.3184 21.0488 81.4082 19.9004 82.8027 19.1387C84.1973 18.3652 85.8203 17.9785 87.6719 17.9785ZM87.707 21.793C86.6641 21.793 85.7969 22.127 85.1055 22.7949C84.4258 23.4629 84.0332 24.5117 83.9277 25.9414H91.4512C91.4395 25.1445 91.293 24.4355 91.0117 23.8145C90.7422 23.1934 90.332 22.7012 89.7812 22.3379C89.2422 21.9746 88.5508 21.793 87.707 21.793ZM111.28 17.9785C113.378 17.9785 115.065 18.5527 116.342 19.7012C117.62 20.8379 118.259 22.666 118.259 25.1855V38H112.897V26.5215C112.897 25.1152 112.639 24.0547 112.124 23.3398C111.62 22.625 110.823 22.2676 109.733 22.2676C108.092 22.2676 106.973 22.8242 106.376 23.9375C105.778 25.0508 105.479 26.6562 105.479 28.7539V38H100.118V18.3477H104.214L104.934 20.8613H105.233C105.655 20.1816 106.176 19.6309 106.798 19.209C107.43 18.7871 108.128 18.4766 108.889 18.2773C109.663 18.0781 110.46 17.9785 111.28 17.9785ZM133.394 38H127.945V16.8359H120.966V12.3008H140.372V16.8359H133.394V38ZM151.166 38.3516C149.221 38.3516 147.563 38 146.192 37.2969C144.82 36.582 143.777 35.4805 143.063 33.9922C142.348 32.5039 141.99 30.5996 141.99 28.2793C141.99 25.877 142.395 23.9199 143.203 22.4082C144.024 20.8848 145.154 19.7656 146.596 19.0508C148.049 18.3359 149.731 17.9785 151.641 17.9785C153 17.9785 154.172 18.1133 155.156 18.3828C156.152 18.6406 157.02 18.9512 157.758 19.3145L156.176 23.4629C155.332 23.123 154.547 22.8477 153.82 22.6367C153.094 22.4141 152.367 22.3027 151.641 22.3027C150.703 22.3027 149.924 22.5254 149.303 22.9707C148.682 23.4043 148.219 24.0605 147.914 24.9395C147.61 25.8184 147.457 26.9199 147.457 28.2441C147.457 29.5449 147.621 30.623 147.949 31.4785C148.277 32.334 148.752 32.9727 149.373 33.3945C149.994 33.8047 150.75 34.0098 151.641 34.0098C152.754 34.0098 153.744 33.8633 154.611 33.5703C155.479 33.2656 156.322 32.8438 157.143 32.3047V36.8926C156.322 37.4082 155.461 37.7773 154.559 38C153.668 38.2344 152.537 38.3516 151.166 38.3516ZM158.181 18.3477H164.052L167.761 29.4043C167.878 29.7559 167.977 30.1133 168.059 30.4766C168.141 30.8398 168.212 31.2148 168.27 31.6016C168.329 31.9883 168.376 32.3926 168.411 32.8145H168.516C168.587 32.1816 168.681 31.5898 168.798 31.0391C168.927 30.4883 169.085 29.9434 169.272 29.4043L172.911 18.3477H178.659L170.345 40.5137C169.841 41.873 169.184 43.0039 168.376 43.9062C167.567 44.8203 166.636 45.5059 165.581 45.9629C164.538 46.4199 163.39 46.6484 162.136 46.6484C161.526 46.6484 160.999 46.6133 160.554 46.543C160.108 46.4844 159.727 46.4199 159.411 46.3496V42.0957C159.657 42.1543 159.968 42.207 160.343 42.2539C160.718 42.3008 161.11 42.3242 161.52 42.3242C162.27 42.3242 162.915 42.166 163.454 41.8496C163.993 41.5332 164.444 41.1055 164.807 40.5664C165.171 40.0391 165.458 39.459 165.669 38.8262L165.985 37.8594L158.181 18.3477Z" fill="url(#paint0_linear_201_3271)" fill-opacity="0.4"/>
<path fill-rule="evenodd" clip-rule="evenodd" d="M11 25.326L14.5144 23.0416L18 25.3402L14.499 19L11 25.326ZM11.1341 25.9858L14.5182 23.7557L17.8583 25.9693L14.5201 28.2017L11.1341 25.9858ZM11 26.6243C12.2334 27.4331 13.5204 28.2797 14.5144 28.9348L18 26.6243C16.7379 28.9395 15.6865 30.8669 14.5144 33L13.7957 31.6974C12.8301 29.9471 11.8343 28.1422 11 26.6243Z" fill="#3AB83A"/>
<path fill-rule="evenodd" clip-rule="evenodd" d="M14.5 19L14.5131 23.0416L18 25.3402L14.5 19ZM14.5164 23.7557L17.8786 25.9693L14.5181 28.2017L14.5164 23.7557ZM14.5131 28.9348L18 26.6243C16.9185 28.9395 14.5131 33 14.5131 33V28.9348Z" fill="#0B8311"/>
<defs>
<linearGradient id="paint0_linear_201_3271" x1="101.111" y1="17" x2="101.111" y2="38" gradientUnits="userSpaceOnUse">
<stop offset="0.3" stop-color="#0B8311" stop-opacity="0.4"/>
<stop offset="1"/>
</linearGradient>
</defs>
</svg>
